<svg id="Layer_1" data-name="Layer 1" xmlns="http://www.w3.org/2000/svg" xmlns:xlink="http://www.w3.org/1999/xlink" viewBox="0 0 5126.84 4050.78"><defs><style>.cls-1{fill:none;}.cls-2{font-size:161.78px;}.cls-2,.cls-3{fill:#b5b5bc;font-family:BaybayinNamin2020, "Baybayin Namin 2020";}.cls-3{font-size:176.39px;}.cls-4{opacity:0.5;fill:url(#New_Pattern_2);}</style><pattern id="New_Pattern_2" data-name="New Pattern 2" width="998.55" height="1023.23" patternTransform="translate(-679.54 1632.95) rotate(-18.59)" patternUnits="userSpaceOnUse" viewBox="0 0 998.55 1023.23"><rect class="cls-1" width="998.55" height="1023.23"/><text class="cls-2" transform="translate(41.35 202.88)">a</text><text class="cls-2" transform="translate(289.72 202.88)">ba</text><text class="cls-2" transform="translate(540.92 202.88)">ga</text><text class="cls-2" transform="translate(782.46 202.88)">sa</text><text class="cls-2" transform="translate(41.35 463.92)">ta</text><text class="cls-2" transform="translate(300.24 463.92)">la</text><text class="cls-2" transform="translate(534.95 463.92)">fa</text><text class="cls-2" transform="translate(782.46 463.92)">ya</text><text class="cls-2" transform="translate(41.35 964.01)">e</text><text class="cls-2" transform="translate(300.24 964.01)">ka</text><text class="cls-2" transform="translate(534.95 964.01)">ha</text><text class="cls-2" transform="translate(782.46 964.01)">pa</text><text class="cls-2" transform="translate(41.35 716.75)">wa</text><text class="cls-2" transform="translate(279.99 716.75)">da</text><text class="cls-2" transform="translate(519.89 716.75)">ma</text><text class="cls-2" transform="translate(782.46 716.75)">u</text></pattern></defs><title>baybayin-bg-02</title><text class="cls-3" transform="translate(0 1237.05)">a</text><text class="cls-3" transform="translate(270.79 1237.05)">ba</text><text class="cls-3" transform="translate(544.69 1237.05)">ga</text><text class="cls-3" transform="translate(808.04 1237.05)">sa</text><text class="cls-3" transform="translate(0 1512.67)">ta</text><text class="cls-3" transform="translate(282.26 1512.67)">la</text><text class="cls-3" transform="translate(538.17 1512.67)">fa</text><text class="cls-3" transform="translate(808.04 1512.67)">ya</text><text class="cls-3" transform="translate(0 2063.91)">e</text><text class="cls-3" transform="translate(282.26 2063.91)">ka</text><text class="cls-3" transform="translate(538.17 2063.91)">ha</text><text class="cls-3" transform="translate(808.04 2063.91)">pa</text><text class="cls-3" transform="translate(0 1794.33)">wa</text><text class="cls-3" transform="translate(260.19 1794.33)">da</text><text class="cls-3" transform="translate(521.75 1794.33)">ma</text><text class="cls-3" transform="translate(808.04 1794.33)">u</text><polygon class="cls-4" points="5126.84 3031.09 2095.75 4050.78 1076.06 1019.69 4107.14 0 5126.84 3031.09"/></svg>