<?xml version="1.0" encoding="utf-8"?>
<!-- Generator: Adobe Illustrator 23.0.2, SVG Export Plug-In . SVG Version: 6.00 Build 0)  -->
<svg version="1.1" id="Layer_1" xmlns="http://www.w3.org/2000/svg" xmlns:xlink="http://www.w3.org/1999/xlink" x="0px" y="0px"
	 viewBox="0 0 1700.8 1700.8" style="enable-background:new 0 0 1700.8 1700.8;" xml:space="preserve">
<style type="text/css">
	.st0{fill:none;}
	.st1{enable-background:new    ;}
	.st2{fill:#B5B5BC;}
	.st3{opacity:0.23;fill:url(#SVGID_1_);enable-background:new    ;}
</style>
<pattern  y="1700.8" width="1048.8" height="1167.1" patternUnits="userSpaceOnUse" id="New_Pattern_3" viewBox="0 -1292.1 1048.8 1167.1" style="overflow:visible;">
	<g>
		<rect x="0" y="-1292.1" class="st0" width="1048.8" height="1167.1"/>
		<g>
			<g class="st1">
				<path class="st2" d="M86.8-230.6c-0.2-6.7,0.3-12.6,1.6-17.9c1.7-7.3,4.9-13.6,9.5-18.8c4.6-5.2,9.9-8.3,15.8-9.5
					c1.7-0.3,3.4-0.5,5.2-0.5c9.8,0,18.7,4.6,26.7,13.8c2.8,3.1,5.3,6.8,7.8,11s4.2,7.8,5.5,10.8c1.3,2.9,2.9,7.1,4.8,12.5
					c1.6,4.4,3,7.8,4,10.2c1.1,2.4,2.5,5.4,4.3,9c1.8,3.6,3.8,6.7,5.9,9.1c2.2,2.5,4.7,4.5,7.4,6.1c1.6,1.1,3.3,1.9,5.2,2.2
					s3.3,0.1,4.3-0.7c1.5-1.4,2.6-5.1,3.3-11.2c0.1-1.6,0.6-3,1.6-4.3c0.9-1.3,2.1-2.2,3.5-2.8c1.4-0.6,2.9-0.8,4.4-0.7
					c2.3,0.3,4.2,1.4,5.8,3.2s2.2,3.9,2,6.5c-0.3,2.9-0.7,5.3-1,7.1c-0.3,1.9-1.2,4.4-2.6,7.4c-1.4,3-3.1,5.5-5.2,7.5
					c-2.8,2.5-5.9,4.1-9.6,4.8c-3.6,0.7-7.2,0.6-10.8-0.2s-6.9-2.2-10.2-4.3c-6.3-3.8-11.5-8.9-15.5-15.2c-4-6.4-7.7-13.8-11-22.3
					c-0.5-1-1.3-3-2.4-6c-1.1-3-2-5.2-2.5-6.5c-0.5-1.4-1.3-3.3-2.4-5.9c-1.1-2.5-2.1-4.5-2.9-6c-0.9-1.5-1.9-3.2-3.1-5
					c-1.2-1.8-2.4-3.5-3.5-5c-1.5-1.6-3-3-4.6-4.2s-3.3-2.2-5.3-2.8c-2-0.7-3.9-0.9-5.6-0.5c-2.6,0.6-5.1,2.2-7.2,5
					c-2.2,2.8-3.7,6.1-4.7,10c-0.1,0.9-0.3,1.8-0.4,2.8c-0.2,0.9-0.3,1.9-0.3,3c-0.1,1.1-0.1,2-0.2,2.8c-0.1,0.7-0.1,1.8,0,3.2
					c0.1,1.4,0.1,2.4,0.1,2.9s0.1,1.6,0.2,3.2c0.1,1.6,0.2,2.6,0.2,3c0,0.5,0.1,1.6,0.3,3.3c0.2,1.7,0.3,2.7,0.3,2.9
					c7.9,5.2,16.1,9.8,24.6,13.8c1.6,0.7,2.8,1.7,3.7,3c0.9,1.3,1.3,2.7,1.4,4.2c0.1,1.5-0.2,3-0.8,4.5c-1,2.1-2.7,3.5-5,4.3
					c-2.3,0.8-4.5,0.7-6.7-0.3c-5.4-2.5-10.8-5.3-16.2-8.4c0.1,5.2,0.1,10.3,0,15.3c7.1,4.4,14.2,8.5,21.2,12.4
					c2.1,1.1,3.4,2.9,4.1,5.2c0.7,2.3,0.5,4.5-0.7,6.6c-1.1,2.1-2.9,3.5-5.2,4.2c-2.3,0.7-4.5,0.5-6.5-0.7
					c-4.7-2.5-9.5-5.2-14.3-8.1c-0.9,5.7-2.8,10.8-5.6,15.2c-2.8,4.4-6.3,7.7-10.4,9.9c-4.2,2.3-8.7,3.2-13.4,2.8
					c-4.7-0.4-9-1.6-13-3.7c-4-2.1-7.6-4.8-10.8-8.3c-8-8.3-11.9-17.2-11.7-26.9c0.1-2.3,1.1-4.3,2.8-5.9c1.8-1.7,3.8-2.5,6.2-2.4
					c2.4,0.1,4.3,1,5.9,2.8c1.6,1.8,2.4,3.9,2.4,6.2c-0.2,4.8,2,9.6,6.5,14.3c2.6,2.5,5.6,4.4,8.8,5.6c3.2,1.2,5.9,1.2,8.1,0.1
					c4.7-2.4,7.3-9.1,7.9-20.2c-7.7-5.3-15.3-10.7-22.7-16.4c-2-1.4-3.1-3.3-3.4-5.7c-0.3-2.4,0.3-4.5,1.6-6.4
					c1.7-2.3,4-3.4,6.9-3.4c2.1,0,3.8,0.6,5.3,1.7c4.1,3.2,8.3,6.3,12.6,9.3c-0.1-4.9-0.3-9.9-0.5-15c-6-4.1-11.7-8.5-17.2-13.1
					c-1.8-1.5-2.8-3.4-3-5.9c-0.2-2.4,0.5-4.5,2-6.4c1.6-2.1,3.8-3.1,6.5-3.1c1,0,2.1,0.2,3.2,0.7c1.1,0.5,1.9,0.9,2.5,1.3
					c0.6,0.4,1.4,1.1,2.4,2.1C85.9-231.3,86.6-230.7,86.8-230.6z"/>
			</g>
			<g class="st1">
				<path class="st2" d="M464.6-349.1c-3.2,10.9-8,21-14.3,30.1c-6.3,9.2-13.7,16.7-22.2,22.4c-4.1,2.8-8.6,5.1-13.4,7.1
					s-9.9,3.5-15.2,4.5c-5.3,1-10.8,1.2-16.6,0.7c-5.8-0.5-11.5-1.8-17-3.7c-13.1-4.8-25.9-14.7-38.4-29.6
					c-16.3-19.4-26.3-39.4-30-59.9c-1.1-6.7-1.3-12.4-0.3-17.2c1.6-7.8,5.8-14.3,12.6-19.6c6.8-5.2,14.8-7.8,23.9-7.8
					c4.2,0,8.4,0.6,12.4,1.9c10.2,3.3,20.2,10.3,30,20.8c9.9-9.8,21.2-16,34.1-18.6c10.7-2.2,20.5-1.5,29.4,2.1
					c8.9,3.6,15.7,8.8,20.4,15.7c2.8,4.1,4.8,8.6,6.2,13.5c1.4,4.9,2,9.7,1.9,14.5c-0.1,4.8-0.5,8.9-1.1,12.5
					C466.3-356.2,465.5-352.7,464.6-349.1z M448.5-353.8c2.1-7.6,2.9-14.6,2.6-21c-0.3-6.4-2-11.8-5-16c-3.4-5.1-8.3-8.4-14.5-10.1
					c-6.2-1.7-12.3-1.9-18.3-0.8c-4.4,0.8-8.6,2.3-12.7,4.6s-8,5-11.5,8.4c-3.6,3.3-6.7,7.1-9.3,11.2c-1.3,2.1-3,3.4-5.3,3.9
					c-2.2,0.5-4.3,0.1-6.3-1.1c-1.8-1.3-3-3-3.5-5.2c-0.5-2.2-0.2-4.2,0.9-6.2c-8.7-9.4-17-15.4-24.8-18.1c-5.9-2-11.6-1.7-17.3,0.9
					c-5.7,2.5-9,6.4-9.9,11.7c-0.6,2.9-0.5,6.6,0.3,11.2c3.1,17.8,11.8,35.2,26,52.2c10.7,12.6,21.2,20.8,31.7,24.6
					c5.1,2,10.4,2.9,16,2.9c11.1-0.1,21.5-3.4,31-9.8c4.6-3,8.8-6.7,12.6-11.1c3.8-4.4,7.2-9.4,10.2-14.9
					C444.5-342.1,446.8-347.8,448.5-353.8z"/>
			</g>
			<g class="st1">
				<path class="st2" d="M572.5-175.6c1.2-1.8,2.9-2.9,5.1-3.4s4.2-0.1,6,1c11.4,7.2,23.7,10.9,37,10.9h0.5c2,0,3.2-0.1,3.6-0.3
					c1.1-0.7,1.6-2.2,1.2-4.5c-0.2-2.4-1.6-5.5-4.1-9.3c-6.5-10.2-14.7-18.5-24.5-25c-1.8-1.1-3-2.7-3.5-4.7c-0.5-2-0.3-3.9,0.8-5.8
					c1-1.8,2.5-3.1,4.5-3.8c2-0.7,3.8-0.7,5.7,0c7.6,3.1,15.4,4.7,23.6,4.8c3.6,0,6-0.5,7.2-1.4c1.6-1.4,2.4-3.7,2.2-7.1
					c-0.1-3.3-0.9-6.6-2.4-9.8c-3.8-8.2-9.3-14.8-16.6-20.1c-7.3-5.2-15.1-8.1-23.5-8.7c-3.4-0.2-6.3,0.2-8.6,1.2
					c-2,0.9-4,0.9-6.1,0.1s-3.6-2.3-4.5-4.3c-0.9-2-0.9-4.1-0.1-6.2c0.8-2.1,2.2-3.6,4.1-4.4c4-1.7,8.4-2.6,13.3-2.6
					c1,0,2.1,0.1,3.1,0.2c11.3,0.8,21.7,4.7,31.4,11.5c9.7,6.9,17.1,15.7,22.1,26.4c2.8,6.2,4,12.3,3.8,18.4
					c-0.2,8-3.2,14.2-8.8,18.4c-4.1,3-9.7,4.5-16.7,4.5c2.6,3,5,6.1,7.1,9.5c3.9,6,6.1,11.4,6.5,16.2c0.1,0.3,0.2,0.7,0.2,1
					c0.2,0.3,0.5,0.6,0.7,0.9c4.7,4.9,9.6,8.1,14.8,9.5c3.3,0.9,6.6,1,9.8,0.2c3.2-0.8,5.9-2.2,7.9-4.3c5.3-5.5,7.2-15.6,5.9-30.1
					c-0.9-9.3-2.9-20.8-5.9-34.5c-1.7-8.5-1.4-15.2,0.9-20c1.7-3.3,4.2-6,7.6-8s7.1-3,11.2-3c1.4,0,2.7,0.1,4,0.3
					c4.7,0.9,10.6,3.8,17.7,8.6c1.8,1.3,3,3,3.4,5.2c0.5,2.2,0,4.2-1.3,5.9c-1.3,1.8-3.1,2.9-5.3,3.3c-2.2,0.4-4.1,0-5.9-1.1
					c-5.2-3.4-9-5.4-11.5-5.9c-1.1-0.2-2.3-0.1-3.4,0.3c-1.1,0.4-1.9,0.9-2.2,1.6c-0.5,1.3-0.2,4.4,0.9,9.3
					c3,14.2,4.9,26.4,5.9,36.3c2,19.5-1.4,33.8-10.2,42.9c-4.4,4.5-9.7,7.5-16,9c-6,1.3-11.9,1.1-17.7-0.5
					c-6.1-1.6-11.8-4.7-17.1-9.1c-0.9,0.9-2,1.7-3.1,2.4c-3.1,1.7-7.1,2.6-11.9,2.8h-0.7c-16.4,0.1-31.6-4.4-45.6-13.4
					c-2-1.4-3.2-3.2-3.6-5.3C570.9-171.8,571.3-173.8,572.5-175.6z"/>
			</g>
			<g class="st1">
				<path class="st2" d="M986.7-372.6c-1,4.4-3.3,8.2-6.9,11.5c-3.6,3.3-7.9,5.7-12.9,7.1c-3.2,0.9-6.8,1.4-10.7,1.6
					c4.2,5.5,6.6,11,7.1,16.5c0.5,5.5-1,10.2-4.5,14.1c-5.5,6.1-14.1,8.2-25.8,6.4c-4.7-0.8-9.3-1.8-13.8-3.1l5.5,23.1l0.5,1
					c0.3,1.6,0.3,3.1-0.2,4.5c-0.5,1.4-1.3,2.6-2.4,3.7s-2.5,1.8-4,2.2c-2.4,0.6-4.7,0.2-6.8-1c-2.1-1.3-3.5-3-4-5.2l-0.3-1
					c-7.6-29.1-14.1-58.4-19.5-88c-0.7-4.1-1.4-6.5-2.2-7.1c-0.6-0.3-1.8,0-3.8,1.1s-3.7,2.6-5.3,4.6c-2.4,3-4.7,6.5-6.9,10.6
					c-2.2,4.1-3.9,7.6-5.1,10.4c-1.2,2.9-2.8,7-4.9,12.4c-2.2,5.7-3.9,10.2-5.3,13.4c-1.3,3.2-3.2,7.1-5.8,11.8
					c-2.5,4.7-5.2,8.8-8.1,12.3c-1.4,2-3.3,3.1-5.8,3.4c-2.5,0.3-4.7-0.2-6.6-1.6c-2-1.4-3.1-3.3-3.4-5.6c-0.3-2.3,0.2-4.4,1.6-6.2
					c2.4-3,4.7-6.5,6.8-10.5s3.8-7.4,5-10.2c1.2-2.8,2.8-6.9,4.9-12.3c2.2-5.9,3.9-10.4,5.3-13.5c1.3-3.2,3.3-7.1,5.9-11.9
					s5.4-9,8.4-12.7c3.7-4.7,8-8.2,13.1-10.3c3.2-1.4,6.4-2.1,9.6-2.1c3.7,0,7.1,1,10.3,2.9c5.2,3.2,8.6,9.3,10.2,18.3
					c2.6,14.7,5.6,29.4,9,44.1c6.8,2.8,13.8,4.7,21,5.9c5.2,0.8,8.3,0.6,9.5-0.7c0.6-0.6,0.5-1.9-0.1-3.9c-0.6-2-1.8-4-3.4-6.1
					c-5.7-7.5-12.8-13.5-21.2-18.1c-2.2-1.1-3.6-2.8-4.2-4.9c-0.6-2.1-0.4-4.2,0.7-6.1s2.8-3.3,5-4.1s4.4-0.7,6.5,0.2
					c5.9,2.4,11.9,4.2,18.3,5.5c6.4,1.1,11.5,1.2,15.3,0.2c1.8-0.5,3.4-1.3,4.7-2.4c1.3-1.1,2.2-2.4,2.5-3.6c0.3-2-0.3-4.6-1.9-7.9
					c-4.2-8.4-11.5-14.6-21.6-18.6s-19.9-4.4-29.2-1.2c-2.3,0.7-4.5,0.5-6.7-0.5c-2.2-1-3.7-2.6-4.5-4.8c-0.8-2.2-0.7-4.3,0.4-6.5
					c1.1-2.1,2.7-3.5,4.9-4.2c5.9-2,12-2.9,18.4-2.9c7.9,0,15.8,1.5,23.6,4.7c14.4,5.5,24.6,14.5,30.7,26.9
					C986.8-384.4,987.9-378.2,986.7-372.6z"/>
			</g>
			<g class="st1">
				<path class="st2" d="M200.3-429c0.5,2.2,0.1,4.3-1.2,6.2s-3,3.1-5.3,3.5c-18.3,3.7-36.7,3.6-55.3-0.3
					c-18.6-3.8-35.7-11.1-51.3-21.6c-14.2-9.4-24.9-20.4-31.9-33.1c-1.7,0.8-3.3,1.9-4.8,3.2c-1.5,1.3-2.8,2.8-3.9,4.5
					c-1.1,1.7-2,3.5-2.7,5.6c-0.7,2.1-1.1,4.1-1.2,6c0,2.1,0.3,4.2,0.9,6.3c0.6,2.1,1.5,4.1,2.6,5.9s2.4,3.4,4,4.8s3.2,2.5,4.9,3.2
					c2.2,1,3.7,2.6,4.6,4.7c0.9,2.1,0.9,4.2,0,6.3c-0.9,2.1-2.4,3.6-4.7,4.5s-4.4,0.8-6.5-0.1c-4.5-1.8-8.4-4.6-11.9-8.3
					c-3.4-3.7-6.1-8-7.9-12.9c-1.8-4.9-2.7-9.9-2.6-15c0.1-4.7,1.1-9.3,3.1-13.9c2-4.5,4.6-8.6,7.9-12.1c3.3-3.5,7.2-6.2,11.5-8
					l-0.7-2.1c-3-11.8-2.5-23.5,1.4-35.1c4.2-12.6,11.5-21.6,21.9-27c1.3-0.6,2.5-0.9,3.8-0.9c3.4,0,5.9,1.5,7.4,4.5
					c1.1,2.1,1.3,4.2,0.6,6.4c-0.7,2.2-2.2,3.8-4.2,4.8c-6.2,3.3-10.7,9.2-13.6,17.6s-3.2,16.9-1,25.5c4,15.6,14.8,29.3,32.4,41.2
					c13.8,9.2,28.9,15.5,45.3,18.9c16.4,3.4,32.7,3.5,48.7,0.2c2.2-0.5,4.2,0,6.1,1.3C198.7-433,199.9-431.2,200.3-429z"/>
			</g>
			<g class="st1">
				<path class="st2" d="M326.3-592c2.1,0,3.9,0.8,5.6,2.3c1.7,1.5,2.6,3.4,2.7,5.4c0.2,1.5,0,2.9-0.7,4.2c-0.7,1.3-1.6,2.4-2.8,3.3
					s-2.5,1.3-4,1.5c-4.8,0.5-9.1-1.2-12.7-5c-4.2-4.4-6-9.5-5.3-15.5c0.3-2.8,1.2-5.4,2.6-7.8c1.4-2.5,3.2-4.7,5.4-6.5
					c2.2-1.9,4.8-3.4,7.7-4.4c3.2-1.1,6.8-1.7,10.9-1.7c2.4,0,5.4,0.3,9,0.9c4,0.7,8.1,1.6,12.2,2.8c-0.8-2.9-0.9-5.6-0.3-8.1
					c1.1-4.6,4-7.9,8.6-9.8c1.8-0.7,4.5-1.3,7.9-1.9v-0.2c2.2-0.3,4.2-0.9,6-1.5l-6.5-5.7c-3.3-2.6-5.5-5.4-6.4-8.3
					c-1.3-3.7-1.1-7.3,0.4-10.9s3.9-6.5,7.1-8.5c1.1-0.8,2.8-1.7,4.8-2.8c2-1.3,3.2-2.1,3.8-2.6c0.7-0.7,1.1-1.7,1.4-3
					c0.2-1.3,0.1-2.4-0.5-3.4c-0.3-1-1-1.8-1.9-2.2c-0.9-0.4-1.7-0.5-2.4-0.4c-1.5,0.3-3,0.3-4.4,0c-1.4-0.3-2.7-1.1-3.7-2.2
					s-1.7-2.4-2.1-3.9c-0.6-2.2-0.3-4.2,0.9-6.2c1.2-2,2.9-3.2,5.1-3.8c1.6-0.3,3.2-0.5,4.7-0.5c3.9,0,7.6,1.1,11,3.2
					c3.4,2.1,6,5,7.8,8.7c2.1,4,2.7,8.5,1.9,13.3c-0.8,4.9-2.9,8.9-6.2,12.1c-1.6,1.7-4.1,3.4-7.6,5.2c-1.5,0.8-2.5,1.4-3.1,1.9
					c-0.3,0.2-0.6,0.5-0.9,0.7c0.2,0.2,0.5,0.5,0.7,0.9l10,8.1c4.2,3.8,6.1,7.9,5.7,12.4c-0.5,4.1-2.9,7.5-7.4,10
					c-4.9,2.9-10.1,4.8-15.5,5.7c-1,0.2-1.9,0.4-2.6,0.5c2.4,5.3,5.9,9.5,10.5,12.7c1.1,0.7,2,1.5,2.6,2.6c2.3,1.5,4.5,2.9,6.5,4.3
					c1.7,1.1,4.2,3,7.6,5.5c6.7,4.9,11.7,8.2,15.2,9.8c7.7,3.7,14.1,4,19.3,0.9c2.6-1.6,4.3-4.2,5-7.8c0.3-2.5,0-4.5-1-5.9
					c-1.4-1.8-1.9-3.9-1.6-6.1s1.3-4.1,3.1-5.5c1.8-1.4,3.8-2,6.2-1.6c2.4,0.3,4.2,1.4,5.4,3.1c4,5.4,5.4,11.7,4.1,18.9
					c-0.7,3.9-2.1,7.6-4.3,10.9c-2.2,3.4-4.9,6.1-8.1,8c-4.8,3-10.3,4.5-16.5,4.5c-6.2,0-12.4-1.5-18.6-4.7
					c-4.5-2.1-10.5-5.9-18.1-11.5c-3.2-2.3-5.6-4-7.1-5c-12.6-8.6-26.4-14.1-41.3-16.4c-5.2-0.8-9.1-0.7-11.7,0.2
					c-1.1,0.3-2.2,1-3.2,1.9c-1,0.9-1.5,1.9-1.6,2.9C325.5-593.2,325.8-592.6,326.3-592z"/>
			</g>
			<g class="st1">
				<path class="st2" d="M740.7-476.1c0.2,7.5-1.3,14.5-4.5,21.2c-3.1,7-7.4,12.4-12.9,16.2c-5.9,4-12.2,5.9-19.1,5.5
					c-6.8-0.6-12.9-3.2-18.3-7.9c-2.6-2.2-5.1-5-7.5-8.5c-2.4-3.5-4.1-6.5-5.3-9c-1.2-2.5-2.7-5.9-4.6-10.4l-16.7-39.4
					c-4.7-10.8-8.7-18.2-11.9-22.2c-4.5-5.5-9.4-8.2-14.8-7.9c-5.7,0.3-9.9,3.2-12.6,8.6s-3.8,12.5-3.4,21.4
					c0.1,1.7,0.3,4.5,0.5,8.3c0.8,18.5,1.8,32.3,2.9,41.5c0.3,2.6,0.2,5.2-0.3,7.8c-0.6,2.5-1.6,4.8-2.9,6.7c-1.4,2-3,3.5-5,4.7
					c-4.4,2.4-9.8,2.9-16.2,1.4c-6.7-1.5-11.8-4.5-15.3-9c-5.1-6.7-7.9-14.3-8.4-22.9c-0.1-2,0.5-3.7,1.8-5.2c1.3-1.5,3-2.3,4.9-2.5
					s3.7,0.4,5.2,1.8c1.5,1.4,2.3,3,2.4,4.8c0.3,5.7,2.2,10.7,5.5,15c1.4,1.8,3.6,3.1,6.7,3.8c3.1,0.7,5.2,0.7,6.4,0.2
					c1-0.7,1.4-2.3,1.2-4.8c-1.4-9.6-2.5-23.9-3.3-42.7c-0.1-4.4-0.2-7.1-0.3-8.1c-0.6-13.4,1.8-24.1,7-32.1s12.8-12.3,22.7-12.8
					h1.9c9.6,0.1,17.9,4.5,24.8,13.3c4.1,5.2,8.7,13.7,13.8,25.7l7.8,18.1l32.6-19.6c1.3-0.7,2.5-1,3.8-0.9c2.8,0.1,4.8,1.3,6.2,3.4
					c0.9,1.7,1.1,3.5,0.6,5.4c-0.5,1.9-1.6,3.4-3.2,4.4l-34.3,20.5l3.4,8.1c1.1,2.6,2.1,4.8,2.8,6.4c0.7,1.6,1.7,3.6,2.9,5.9
					c1.2,2.4,2.4,4.4,3.7,6.1s2.6,3.2,4,4.3c1.8,1.6,3.9,2.8,6.3,3.5c2.4,0.7,4.7,0.9,7.1,0.4c2.4-0.5,4.6-1.4,6.5-2.8
					c3.3-2.3,6.1-5.8,8.2-10.5c2.1-4.7,3.1-9.6,3-14.6c-0.1-2.1,0.5-3.8,1.9-5.3c1.4-1.4,3-2.2,5-2.2h0.3c1.8,0,3.4,0.7,4.8,2.1
					C739.9-479.7,740.6-478,740.7-476.1z"/>
			</g>
			<g class="st1">
				<path class="st2" d="M1009-600.6c-1.1,6.1-3.7,11.7-7.6,16.7c-3.9,5.1-8.7,9-14.5,11.9c-6.4,3.2-12.3,4.1-17.7,2.8
					c-5.2-1.4-9.4-4.4-12.7-9c-3.3-4.6-5.6-9.6-6.9-15.2c-1.1-4.8-1.8-11.9-2.1-21.4c0-2.6-0.1-4.6-0.2-5.9
					c-0.7-18.8-5-33.9-12.9-45.3c-4.2-6.1-9.4-10.6-15.6-13.6c-6.1-3-12-3.9-17.7-2.8c-5.5,1-9.6,3.7-12.4,7.9
					c-2.2,3.3-3.5,7.8-3.9,13.4c-0.4,5.6-0.4,11,0.1,16v1.7c0.5,10.9,0.5,21.8,0,32.7c-0.6,13-4.2,21.4-11,25.3
					c-3.7,2.2-8,2.8-13.1,1.9c-7-1.5-13.1-5.3-18.3-11.4c-5.2-5.9-8.3-12.7-9.3-20.7c-0.3-2.2,0.1-4.1,1.2-5.9s2.7-2.8,4.7-3.1
					c2-0.3,3.8,0.1,5.4,1.5c1.7,1.3,2.6,3,2.8,5.1c0.7,4.6,2.6,8.7,5.6,12.3c3,3.6,6.5,5.8,10.4,6.6c1.8,0.3,3.1,0.3,3.8-0.2
					c1.8-1.1,2.9-5.3,3.3-12.4c0.5-10.5,0.5-20.8,0.2-31.2l-0.2-1.7c-0.1-4.6-0.2-9-0.3-13.2c-0.1-4.2,0.5-8.6,1.5-13.4
					c1.1-4.7,2.8-8.9,5.1-12.6c5.1-7.8,12.2-12.6,21.5-14.5c2.4-0.5,4.9-0.7,7.4-0.7c7.3,0,14.6,2.1,21.7,6.2
					c7.1,4.1,13.2,9.8,18.3,17.1c9.6,14,14.9,31.9,15.8,53.7c0.1,1.4,0.2,3.5,0.3,6.4c0.1,8.3,0.6,14.2,1.5,17.9
					c0.8,3.2,2,6,3.7,8.4c1.7,2.4,3.4,3.8,5.3,4.4c2.2,0.5,5-0.2,8.4-1.9c3.7-1.7,6.7-4.1,9.2-7.2s4-6.5,4.7-10.2
					c0.6-3.4,0.2-6.9-1.2-10.3s-3.3-5.6-5.9-6.4c-1.8-0.8-3.2-2.2-4.2-4c-1-1.9-1.1-3.9-0.5-5.9c0.6-2.1,1.8-3.6,3.6-4.6
					c1.8-1,3.6-1.1,5.4-0.4c6.3,2.1,11.1,6.7,14.5,14C1009.5-614.7,1010.3-607.8,1009-600.6z"/>
			</g>
			<g class="st1">
				<path class="st2" d="M27.5-1052.1c1.5-2.1,3.6-3.1,6.4-3.1c1.6,0,3.1,0.5,4.5,1.4c40.8,29.4,84.8,49.3,132.1,59.8
					c2,0.3,3.5,1.4,4.7,3.3c1.2,1.8,1.6,3.8,1,5.9c-0.5,2.1-1.7,3.6-3.4,4.7c-1.8,1.1-3.7,1.4-5.8,0.9
					c-24.3-5.4-48.1-13.3-71.3-23.8s-45.3-23.3-66.3-38.4c-1.7-1.1-2.8-2.8-3.1-5C26-1048.6,26.4-1050.5,27.5-1052.1z M174-1034.2
					c-1.4-0.8-2.9-1.3-4.5-1.6c-1.6-0.3-3.2-0.3-4.7,0s-3,0.8-4.6,1.5c-1.6,0.7-2.9,1.6-4,2.8c-2.3,2.1-4.8,2.6-7.6,1.7
					c-2.8-0.9-4.4-2.8-5-5.7c-0.7-3.2-1.8-6.3-3.4-9.2s-3.4-5.5-5.4-7.8c-2.1-2.2-4.4-4-7.1-5.4c-3.7-2.1-7.6-3.1-11.8-3
					c-4.2,0.1-8.1,1.1-11.8,3.2c-2.6,1.3-5.2,1.2-7.7-0.3c-2.5-1.4-3.7-3.6-3.7-6.5c0-4.9-1.3-9.7-3.8-14.2s-5.7-7.7-9.6-9.6
					c-3.7-1.8-7.6-2.3-11.8-1.5s-7.8,3-10.8,6.3c-0.9,0.9-2,1.6-3.3,2c-1.3,0.4-2.6,0.5-4,0.2s-2.6-0.9-3.6-1.8
					c-1.5-1.4-2.3-3.1-2.3-5.3c-0.1-2.1,0.6-3.9,2-5.4c7-7.7,15.6-11.5,25.8-11.5c5.2,0.1,10,1.3,14.6,3.4
					c6.5,3.2,11.8,8.3,15.8,15.3c2.2,3.6,3.8,7.3,4.8,11.4c3-0.7,6-1,9.1-1c6.9,0,13.3,1.6,19.1,4.8c9.1,4.8,15.8,12.3,20.3,22.6
					c8.7-3.6,17.2-3.3,25.5,0.9c5.5,2.8,10,7,13.6,12.7c3.6,5.7,5.6,11.9,6,18.6c0.1,2.2-0.5,4-2,5.6c-1.4,1.5-3.2,2.4-5.3,2.5
					c-2.1,0.1-4-0.5-5.5-2s-2.4-3.2-2.5-5.3c0-1.5-0.2-3-0.6-4.6c-0.4-1.6-1-3-1.7-4.4c-0.7-1.4-1.6-2.7-2.4-4
					c-0.9-1.3-1.8-2.4-2.9-3.3C176.4-1032.9,175.2-1033.6,174-1034.2z"/>
			</g>
			<g class="st1">
				<path class="st2" d="M479.3-1243c-0.8,3.4-2.6,6.6-5.3,9.4c-2.8,2.8-6,4.7-9.8,5.8c-8.3,2.4-18.4,1.5-30.5-2.6
					c-7.7-2.6-16.1-6.3-25.3-10.9c-1.3,13.4-2.9,26.8-5,40.1c13.9,7.5,25.6,12.9,35.1,16.2c9.1,3,16.2,3.8,21.4,2.4
					c1.3-0.5,2.4-1.1,3.4-2.1c1-0.9,1.5-1.7,1.6-2.2c-1.6-1.4-2.4-3.1-2.5-5.2c-0.1-2.1,0.5-3.8,1.8-5.3c0.9-0.9,2-1.6,3.2-2
					c1.2-0.4,2.5-0.5,3.8-0.2s2.5,0.8,3.5,1.6c4.4,3.9,5.9,8.7,4.7,14.3c-0.5,2.3-1.4,4.4-2.9,6.5c-1.5,2-3.3,3.8-5.3,5.3
					c-2.1,1.5-4.4,2.7-6.9,3.4c-8.4,2.4-18.5,1.6-30.5-2.6c-10.9-3.7-26.1-10.8-45.5-21.4c-19.2-10.3-34-17.3-44.4-20.8
					c-6.8-2.3-12-3-15.7-2.1c-2.4,0.8-4.1,2.1-5,4c-0.6,1.3-0.6,2.5-0.2,3.6c0.8,2,2.5,3.7,5.1,5.3c2.6,1.6,5.5,2.6,8.9,3
					c2.1,0.2,3.7,1.1,5,2.7c1.3,1.6,1.8,3.4,1.5,5.4c-0.3,2.1-1.3,3.7-2.9,5c-1.7,1.3-3.5,1.8-5.4,1.5c-6.1-0.8-11.5-2.8-16.2-5.9
					c-4.7-3.2-8-7-9.8-11.5c-2-5.2-1.6-10.4,1-15.7c2.9-5.9,7.6-9.7,14.1-11.5c2.4-0.8,5.1-1.2,7.9-1.2c4.7,0.1,10.2,1.2,16.5,3.3
					c10.9,3.6,24.5,9.8,40.8,18.6c2.1-13.2,3.6-26.5,4.7-40c-1.8-1-3.8-2.1-5.9-3.3c-19.2-10.2-34-17.1-44.4-20.7
					c-6.8-2.4-12-3.1-15.7-2.1c-2.4,0.8-4.1,2.1-5,4c-0.6,1.3-0.6,2.5-0.2,3.6c0.8,2,2.5,3.7,5.1,5.3c2.6,1.5,5.5,2.6,8.9,3
					c2.1,0.2,3.7,1.1,5,2.7c1.3,1.5,1.8,3.4,1.5,5.4s-1.3,3.7-2.9,5c-1.7,1.3-3.5,1.8-5.4,1.6c-6.1-0.9-11.5-2.9-16.2-6
					c-4.7-3.1-8-6.9-9.8-11.4c-2-5.2-1.6-10.4,1-15.7c2.9-6,7.6-9.9,14.1-11.7c2.4-0.7,5.1-1,7.9-1c4.7,0.1,10.2,1.2,16.5,3.3
					c11.3,3.8,26.8,11.1,46.7,21.9c18.7,10,33.1,16.8,43.2,20.3c9.1,3.1,16.2,3.9,21.4,2.4c1.3-0.3,2.4-1,3.4-1.9
					c1-0.9,1.5-1.7,1.6-2.2c-1.6-1.4-2.5-3.1-2.6-5.2c-0.1-2.1,0.5-3.9,1.9-5.4c1.4-1.5,3.1-2.4,5.2-2.4c2.1-0.1,3.8,0.6,5.3,2
					C479-1253.4,480.6-1248.6,479.3-1243z"/>
			</g>
			<g class="st1">
				<path class="st2" d="M567.1-1053.9c2.6-5.5,6.7-9.8,12.2-12.9c5.1-2.8,10.6-4.1,16.5-4.1h0.3c8.4,0,17.9,2.8,28.4,8.3
					c6.7,3.4,15.9,9.2,27.7,17.4c9.6,6.4,16.9,11.1,21.9,14.1c9.3,5.3,17.3,8.3,24.1,9c4.1,0.3,8,0,11.7-1c3.7-1,6.5-2.8,8.6-5.3
					c2.3-2.4,3.5-5.3,3.7-8.6s-0.5-6-2.2-8.1c-1.4-1.6-2-3.5-1.8-5.6c0.2-2.1,1.1-3.9,2.7-5.3c1.6-1.4,3.5-2,5.7-1.8
					c2.2,0.2,3.9,1.1,5.2,2.8c4.6,5.2,6.6,11.5,6,18.9c-0.6,7-3.1,13-7.6,18.1c-3.9,4.2-8.8,7.4-14.7,9.5
					c-5.9,2.1-12.1,2.8-18.7,2.2c-9.1-1-19.2-4.8-30.5-11.2c-5.3-3.1-12.9-8-22.7-14.6c-11.6-7.8-20.4-13.3-26.4-16.5
					c-8.4-4.5-15.4-6.7-21.2-6.7H596c-2.2,0.1-4.3,0.5-6.3,1.1s-3.8,1.6-5.3,2.8c-1.6,1.3-2.7,2.6-3.4,4.1c-1,2.3-0.9,4.8,0.3,7.6
					c1,1.7,2.2,2.8,3.6,3.1c2.1,0.6,3.6,1.8,4.7,3.5c1.1,1.8,1.4,3.7,0.9,5.9c-0.5,2.1-1.6,3.7-3.5,4.7c-1.9,1-3.9,1.3-5.9,0.9
					c-6-1.5-10.5-5.3-13.6-11.4C564.2-1040.3,564-1047.2,567.1-1053.9z"/>
			</g>
			<g class="st1">
				<path class="st2" d="M1010.6-1171.2c0.2,7.5-1.3,14.5-4.5,21.2c-3.1,7-7.4,12.4-12.9,16.2c-5.9,4-12.2,5.9-19.1,5.5
					c-6.8-0.6-12.9-3.2-18.3-7.9c-2.6-2.2-5.1-5-7.5-8.5c-2.4-3.5-4.1-6.5-5.3-9c-1.2-2.5-2.7-5.9-4.6-10.4l-16.7-39.4
					c-4.7-10.8-8.7-18.2-11.9-22.2c-4.5-5.5-9.4-8.2-14.8-7.9c-5.7,0.3-9.9,3.2-12.6,8.6c-2.6,5.4-3.8,12.5-3.4,21.4
					c0.1,1.7,0.3,4.5,0.5,8.3c0.8,18.5,1.8,32.3,2.9,41.5c0.3,2.6,0.2,5.2-0.3,7.8c-0.6,2.5-1.6,4.8-2.9,6.7s-3,3.5-5,4.7
					c-4.4,2.4-9.8,2.9-16.2,1.4c-6.7-1.5-11.8-4.5-15.3-9c-5.1-6.7-7.9-14.3-8.4-22.9c-0.1-2,0.5-3.7,1.8-5.2c1.3-1.5,3-2.3,4.9-2.5
					s3.7,0.4,5.2,1.8c1.5,1.4,2.3,3,2.4,4.8c0.3,5.7,2.2,10.7,5.5,15c1.4,1.8,3.6,3.1,6.7,3.8c3.1,0.7,5.2,0.7,6.4,0.2
					c1-0.7,1.4-2.3,1.2-4.8c-1.4-9.6-2.5-23.9-3.3-42.7c-0.1-4.4-0.2-7.1-0.3-8.1c-0.6-13.4,1.8-24.1,7-32.1
					c5.2-8,12.8-12.3,22.7-12.8h1.9c9.6,0.1,17.9,4.5,24.8,13.3c4.1,5.2,8.7,13.7,13.8,25.7l7.8,18.1l32.6-19.6
					c1.3-0.7,2.5-1,3.8-0.9c2.8,0.1,4.8,1.3,6.2,3.4c0.9,1.7,1.1,3.5,0.6,5.4c-0.5,1.9-1.6,3.4-3.2,4.4l-34.3,20.5l3.4,8.1
					c1.1,2.6,2.1,4.8,2.8,6.4c0.7,1.6,1.7,3.6,2.9,5.9c1.2,2.4,2.4,4.4,3.7,6.1c1.3,1.7,2.6,3.2,4,4.3c1.8,1.6,3.9,2.8,6.3,3.5
					c2.4,0.7,4.7,0.9,7.1,0.4c2.4-0.5,4.6-1.4,6.5-2.8c3.3-2.3,6.1-5.8,8.2-10.5c2.1-4.7,3.1-9.6,3-14.6c-0.1-2.1,0.5-3.8,1.9-5.3
					c1.4-1.4,3-2.2,5-2.2h0.3c1.8,0,3.4,0.7,4.8,2.1C1009.7-1174.8,1010.5-1173.1,1010.6-1171.2z"/>
			</g>
			<g class="st1">
				<path class="st2" d="M187.4-721.7c-4.9,9.2-12.1,15.8-21.4,19.8c-10.3,4.6-20.1,4.7-29.3,0.3c-0.8-0.3-1.5-0.8-2.2-1.4
					s-1.1-1.2-1.6-2s-0.7-1.5-0.9-2.4s-0.2-1.7-0.1-2.6s0.3-1.7,0.7-2.5c0.7-1.3,1.6-2.3,2.8-3.2s2.4-1.3,3.9-1.5
					c1.4-0.1,2.8,0.1,4.2,0.7c4.7,2.3,9.9,2.1,15.7-0.5c5.9-2.5,10.4-6.7,13.6-12.6c6.2-11.3,7-25.6,2.4-42.9
					c-2.4-9.6-6.1-18.1-11.1-25.4c-5-7.3-10.8-12.7-17.3-16.3c-4.1-2.2-8.7-3.5-13.8-4c-5.1-0.5-10,0.3-14.9,2.2s-8.8,5-11.8,9.1
					c-1.5,2.1-2.7,4.5-3.7,7.1c-1,2.7-1.7,5.2-2.2,7.4c-0.5,2.2-0.8,5.2-0.9,8.9s-0.2,6.6-0.2,8.7l0.3,9.6c0.3,14.9-0.2,26-1.7,33.2
					c-1.1,5.6-3.2,10-6,13.1c-6.5,7.3-16.4,8.7-29.5,4c-9-3.3-16-7.7-21.3-13.1S32.9-739.2,32-746c-0.2-2.2,0.3-4.2,1.7-6
					c1.4-1.8,3.2-2.9,5.4-3.2s4.3,0.3,6.1,1.7s2.9,3.2,3.1,5.4c1,7.4,7.6,13.3,19.8,17.7c6.1,2.2,9.9,2.4,11.5,0.5
					c0.9-0.7,1.7-2.4,2.2-5.2c1.3-6.1,1.7-15.9,1.2-29.5v-18c0-5.6,0.8-11.4,2.3-17.4s4-11.5,7.5-16.3c6.8-9.8,16.4-15.7,28.8-17.7
					c2.9-0.5,5.8-0.7,8.8-0.7c8.6,0,16.7,2,24.1,6c9.3,4.9,17.2,12.3,23.8,22.2c5.7,8.7,10.1,18.7,13.1,29.8
					C197-755,195.7-736.8,187.4-721.7z"/>
			</g>
			<g class="st1">
				<path class="st2" d="M295-912.4c-5.6-10.7-8.1-22.3-7.4-34.8c0.6-10.2,3.4-18.1,8.6-23.8c4.6-5.2,10.7-8.1,18.3-8.8h2.9
					c4.6,0,9.5,0.8,14.8,2.4c5.3,2,11,4.6,17.1,7.9s11,6.3,14.6,8.9s8.7,6.3,15.2,11.1c7,5.2,12.4,9.1,16.2,11.7s8.7,5.5,14.6,8.7
					c6,3.2,11.6,5.3,16.9,6.5c6.4,1.6,11,1,13.6-1.7c3.4-3.8,4-12.3,1.7-25.5c-0.3-2.2,0.1-4.2,1.4-6c1.3-1.8,3-2.9,5.2-3.3
					c2.2-0.3,4.1,0.1,5.9,1.4c1.7,1.3,2.8,3,3.3,5.2c1,5.3,1.7,9.9,1.9,14c0.2,4-0.2,8.4-1.4,13.1s-3.2,8.7-6.2,11.9
					c-6.7,7.3-16.3,9.5-28.8,6.5c-4.8-1-9.6-2.5-14.2-4.5s-9.5-4.5-14.5-7.6c-5-3.1-9.1-5.8-12.2-8c-3.2-2.2-7.5-5.4-13-9.6
					c-6.2-4.6-11-8.1-14.3-10.5c-3.3-2.4-7.7-5.1-13-8.2c-5.3-3-10.3-5.3-14.9-6.8c-9-2.9-15.3-2.2-19.1,1.9
					c-2.8,3-4.3,7.7-4.7,14.1c-0.5,9.1,1.3,17.5,5.2,25.3c2-0.5,3.9-0.8,5.9-1h2.9c4.6,0,9.5,0.9,14.8,2.6c5.3,1.8,11,4.4,17.1,7.8
					c6.1,3.3,11,6.3,14.6,8.9s8.7,6.3,15.2,11.1c7,5.2,12.4,9.1,16.2,11.7c3.8,2.6,8.7,5.5,14.6,8.7s11.6,5.3,16.9,6.5
					c6.5,1.5,11.1,0.9,13.6-1.9c3.4-3.7,4-12.1,1.7-25.3c-0.3-2.2,0.1-4.2,1.4-5.9c1.3-1.8,3-2.9,5.2-3.3c2.2-0.4,4.1,0,5.9,1.3
					c1.7,1.3,2.8,3,3.3,5.2c1,5.4,1.7,10.1,1.9,14.1c0.2,4-0.2,8.4-1.4,13.1c-1.1,4.7-3.2,8.7-6.2,11.9c-6.7,7.2-16.3,9.4-28.8,6.5
					c-4.8-1.1-9.6-2.7-14.2-4.7c-4.7-2-9.5-4.5-14.5-7.6c-5-3.1-9.1-5.7-12.2-7.9c-3.2-2.2-7.5-5.3-13-9.5
					c-6.2-4.7-11-8.2-14.3-10.6c-3.3-2.4-7.6-5.1-12.9-8.2c-5.3-3.1-10.3-5.4-15-6.9c-9-2.9-15.3-2.2-19.1,1.9
					c-2.8,2.9-4.3,7.5-4.7,14c-0.6,9.5,1.3,18.4,5.7,26.5c1,1.8,1.2,3.8,0.6,5.9c-0.6,2.1-1.9,3.7-3.9,4.8s-4,1.3-6.1,0.6
					c-2.1-0.7-3.7-2-4.7-4c-5.6-10.7-8.1-22.3-7.4-34.8c0.6-9.5,3.1-17.1,7.6-22.7C295-912.2,295-912.3,295-912.4z"/>
			</g>
			<g class="st1">
				<path class="st2" d="M703.5-740c-0.2-2.3,0.4-4.4,1.9-6.3c1.5-1.9,3.4-3,5.9-3.3s4.6,0.3,6.5,1.9c1.9,1.5,3,3.5,3.2,5.8
					c1.3,11.9-0.6,22-5.5,30.1c-3.4,5.5-8,9.6-13.6,12.1c-5.6,2.6-11.3,3.1-16.9,1.6c-7.8-2-13.9-7.2-18.3-15.8
					c-2.8-5.3-4.9-12.2-6.4-20.8l-1.4-7.6c-19.5-1.8-39-2.2-58.6-1c-0.3,2.9-0.7,5.6-1.2,8.3c-0.8,4.6-2.5,9.1-5,13.4
					c-2.5,4.4-5.7,7.8-9.6,10.3c-4.9,3-10.1,3.7-15.5,2.2c-5.6-1.5-10.3-5.3-14.1-11.5c-2.3-3.9-3.9-8.2-4.9-12.8
					c-1-4.7-1.2-9.3-0.6-14s1.8-9.1,3.8-13.3c1-2.1,2.7-3.5,4.9-4.3c2.2-0.8,4.5-0.7,6.6,0.3c2.2,1,3.7,2.7,4.5,5
					c0.8,2.3,0.7,4.5-0.3,6.5c-1.7,3.7-2.5,7.7-2.3,12c0.2,4.3,1.3,8.2,3.4,11.6c1.4,2.3,2.6,3.6,3.8,3.8c0.6,0.1,1.1,0,1.7-0.3
					c1.4-0.8,2.7-2.4,4-4.7c1.3-2.4,2.2-4.9,2.7-7.5c1-5.6,1.6-14.5,1.6-26.5c0-4.6,0.1-8,0.2-10.3c0.5-17.3,3.6-31,9.5-41
					c4.4-7,10-12.4,16.9-16.2c5.6-3.1,11.3-4.7,17.1-4.7c2.3,0,4.5,0.2,6.7,0.7c5.4,1.1,10.4,3.7,14.9,7.6
					c4.5,3.9,8.4,8.8,11.5,14.8c3.3,6.4,6.3,16.4,8.8,29.8l8.4,46.2c2.4,14.1,6.3,21.9,11.7,23.3c1.8,0.5,3.9,0.1,6.1-1.1
					s4-2.9,5.3-5.1C703.3-725.6,704.3-732,703.5-740z M651.8-780.8c-2.2-11.7-4.5-20.2-7.1-25.3c-1.1-2.2-2.5-4.2-4.1-6.1
					c-1.6-1.9-3.3-3.4-5.1-4.7c-1.8-1.2-3.6-2-5.4-2.5c-3.9-0.8-8,0-12.1,2.5c-4.2,2.5-7.4,5.7-9.7,9.7c-4.5,7.3-6.8,18.2-7.1,32.6
					c-0.1,2.1-0.2,5.3-0.2,9.8v4c7.5-0.3,14.9-0.5,22.4-0.5c10.8,0,21.5,0.4,32.2,1.2L651.8-780.8z"/>
			</g>
			<g class="st1">
				<path class="st2" d="M837.3-944.1c1.3-5.9,4.5-11.3,9.8-16.4c6.9-6.5,14.9-11.4,24.1-14.5c7-2.5,14.1-3.8,21.4-3.8
					c2.2,0,4.3,0.1,6.4,0.3c9.3,0.9,18.1,3.8,26.5,8.8c8.3,4.9,15.2,11.4,20.8,19.3c8.2,11.4,11.1,22.5,8.8,33.2
					c-1.5,6.5-4.9,12.2-10.2,17.1c-3.1,3-6.8,5.4-11,7.2c7.7,3.4,15.1,7.3,22.2,11.5c1.8,1.1,3,2.8,3.6,5c0.6,2.2,0.3,4.2-0.7,6.2
					c-2.2,3.8-5,6.8-8.4,9c-3.4,2.2-7.6,4.1-12.6,5.9c-17.9,6.3-36.3,10.5-55.1,12.4c-2.3,0.2-4.3-0.4-6-1.9s-2.7-3.4-3-5.6
					s0.3-4.2,1.8-6c1.5-1.8,3.3-2.8,5.5-3c17.7-1.7,34.9-5.5,51.7-11.4c1.8-0.7,3.4-1.3,4.7-1.9c-13.8-7.2-28-13.1-42.7-17.7
					c-2-0.6-3.5-1.8-4.6-3.6c-1.1-1.8-1.4-3.8-0.9-5.8c0.5-2,1.5-3.6,3.3-4.9c1.7-1.3,3.6-1.8,5.5-1.7c12.1,1.3,20.7,1.1,26-0.3
					c3.4-0.9,6.6-2.6,9.5-5c2.9-2.4,4.7-5.4,5.3-9c1.4-6-0.6-12.7-5.9-20.2c-4.2-5.9-9.6-10.7-15.9-14.4c-6.4-3.7-13-6-20-6.8
					c-6.9-0.8-13.9,0-20.8,2.4c-6.9,2.4-12.9,6.1-18.1,11c-2.8,2.6-4.4,5.3-5,7.9c-0.3,1.5-1,2.8-2.1,3.8c-1,1-2.2,1.8-3.6,2.2
					c-1.4,0.5-2.8,0.5-4.3,0.2c-2.1-0.5-3.7-1.6-4.9-3.5C837.2-939.9,836.8-942,837.3-944.1z"/>
			</g>
			<g class="st1">
				<path class="st2" d="M479.3-75.9c-0.8,3.4-2.6,6.6-5.3,9.4c-2.8,2.8-6,4.7-9.8,5.8c-8.3,2.4-18.4,1.5-30.5-2.6
					c-7.7-2.6-16.1-6.3-25.3-10.9c-1.3,13.4-2.9,26.8-5,40.1c13.9,7.5,25.6,12.9,35.1,16.2c9.1,3,16.2,3.8,21.4,2.4
					c1.3-0.5,2.4-1.1,3.4-2.1c1-0.9,1.5-1.7,1.6-2.2c-1.6-1.4-2.4-3.1-2.5-5.2c-0.1-2.1,0.5-3.8,1.8-5.3c0.9-0.9,2-1.6,3.2-2
					c1.2-0.4,2.5-0.5,3.8-0.2s2.5,0.8,3.5,1.6c4.4,3.9,5.9,8.7,4.7,14.3c-0.5,2.3-1.4,4.4-2.9,6.5c-1.5,2-3.3,3.8-5.3,5.3
					c-2.1,1.5-4.4,2.7-6.9,3.4c-8.4,2.4-18.5,1.6-30.5-2.6c-10.9-3.7-26.1-10.8-45.5-21.4c-19.2-10.3-34-17.3-44.4-20.8
					c-6.8-2.3-12-3-15.7-2.1c-2.4,0.8-4.1,2.1-5,4c-0.6,1.3-0.6,2.5-0.2,3.6c0.8,2,2.5,3.7,5.1,5.3c2.6,1.6,5.5,2.6,8.9,3
					c2.1,0.2,3.7,1.1,5,2.7c1.3,1.6,1.8,3.4,1.5,5.4c-0.3,2.1-1.3,3.7-2.9,5c-1.7,1.3-3.5,1.8-5.4,1.5c-6.1-0.8-11.5-2.8-16.2-5.9
					c-4.7-3.2-8-7-9.8-11.5c-2-5.2-1.6-10.4,1-15.7c2.9-5.9,7.6-9.7,14.1-11.5c2.4-0.8,5.1-1.2,7.9-1.2c4.7,0.1,10.2,1.2,16.5,3.3
					c10.9,3.6,24.5,9.8,40.8,18.6c2.1-13.2,3.6-26.5,4.7-40c-1.8-1-3.8-2.1-5.9-3.3c-19.2-10.2-34-17.1-44.4-20.7
					c-6.8-2.4-12-3.1-15.7-2.1c-2.4,0.8-4.1,2.1-5,4c-0.6,1.3-0.6,2.5-0.2,3.6c0.8,2,2.5,3.7,5.1,5.3c2.6,1.5,5.5,2.6,8.9,3
					c2.1,0.2,3.7,1.1,5,2.7c1.3,1.5,1.8,3.4,1.5,5.4s-1.3,3.7-2.9,5c-1.7,1.3-3.5,1.8-5.4,1.6c-6.1-0.9-11.5-2.9-16.2-6
					c-4.7-3.1-8-6.9-9.8-11.4c-2-5.2-1.6-10.4,1-15.7c2.9-6,7.6-9.9,14.1-11.7c2.4-0.7,5.1-1,7.9-1c4.7,0.1,10.2,1.2,16.5,3.3
					c11.3,3.8,26.8,11.1,46.7,21.9c18.7,10,33.1,16.8,43.2,20.3c9.1,3.1,16.2,3.9,21.4,2.4c1.3-0.3,2.4-1,3.4-1.9
					c1-0.9,1.5-1.7,1.6-2.2c-1.6-1.4-2.5-3.1-2.6-5.2c-0.1-2.1,0.5-3.9,1.9-5.4c1.4-1.5,3.1-2.4,5.2-2.4c2.1-0.1,3.8,0.6,5.3,2
					C479-86.3,480.6-81.5,479.3-75.9z"/>
			</g>
			<rect x="0" y="-1292.1" class="st0" width="1048.8" height="1167.1"/>
		</g>
		<g>
			<g class="st1">
				<path class="st2" d="M479.3-1243c-0.8,3.4-2.6,6.6-5.3,9.4c-2.8,2.8-6,4.7-9.8,5.8c-8.3,2.4-18.4,1.5-30.5-2.6
					c-7.7-2.6-16.1-6.3-25.3-10.9c-1.3,13.4-2.9,26.8-5,40.1c13.9,7.5,25.6,12.9,35.1,16.2c9.1,3,16.2,3.8,21.4,2.4
					c1.3-0.5,2.4-1.1,3.4-2.1c1-0.9,1.5-1.7,1.6-2.2c-1.6-1.4-2.4-3.1-2.5-5.2c-0.1-2.1,0.5-3.8,1.8-5.3c0.9-0.9,2-1.6,3.2-2
					c1.2-0.4,2.5-0.5,3.8-0.2s2.5,0.8,3.5,1.6c4.4,3.9,5.9,8.7,4.7,14.3c-0.5,2.3-1.4,4.4-2.9,6.5c-1.5,2-3.3,3.8-5.3,5.3
					c-2.1,1.5-4.4,2.7-6.9,3.4c-8.4,2.4-18.5,1.6-30.5-2.6c-10.9-3.7-26.1-10.8-45.5-21.4c-19.2-10.3-34-17.3-44.4-20.8
					c-6.8-2.3-12-3-15.7-2.1c-2.4,0.8-4.1,2.1-5,4c-0.6,1.3-0.6,2.5-0.2,3.6c0.8,2,2.5,3.7,5.1,5.3c2.6,1.6,5.5,2.6,8.9,3
					c2.1,0.2,3.7,1.1,5,2.7c1.3,1.6,1.8,3.4,1.5,5.4c-0.3,2.1-1.3,3.7-2.9,5c-1.7,1.3-3.5,1.8-5.4,1.5c-6.1-0.8-11.5-2.8-16.2-5.9
					c-4.7-3.2-8-7-9.8-11.5c-2-5.2-1.6-10.4,1-15.7c2.9-5.9,7.6-9.7,14.1-11.5c2.4-0.8,5.1-1.2,7.9-1.2c4.7,0.1,10.2,1.2,16.5,3.3
					c10.9,3.6,24.5,9.8,40.8,18.6c2.1-13.2,3.6-26.5,4.7-40c-1.8-1-3.8-2.1-5.9-3.3c-19.2-10.2-34-17.1-44.4-20.7
					c-6.8-2.4-12-3.1-15.7-2.1c-2.4,0.8-4.1,2.1-5,4c-0.6,1.3-0.6,2.5-0.2,3.6c0.8,2,2.5,3.7,5.1,5.3c2.6,1.5,5.5,2.6,8.9,3
					c2.1,0.2,3.7,1.1,5,2.7c1.3,1.5,1.8,3.4,1.5,5.4s-1.3,3.7-2.9,5c-1.7,1.3-3.5,1.8-5.4,1.6c-6.1-0.9-11.5-2.9-16.2-6
					c-4.7-3.1-8-6.9-9.8-11.4c-2-5.2-1.6-10.4,1-15.7c2.9-6,7.6-9.9,14.1-11.7c2.4-0.7,5.1-1,7.9-1c4.7,0.1,10.2,1.2,16.5,3.3
					c11.3,3.8,26.8,11.1,46.7,21.9c18.7,10,33.1,16.8,43.2,20.3c9.1,3.1,16.2,3.9,21.4,2.4c1.3-0.3,2.4-1,3.4-1.9
					c1-0.9,1.5-1.7,1.6-2.2c-1.6-1.4-2.5-3.1-2.6-5.2c-0.1-2.1,0.5-3.9,1.9-5.4c1.4-1.5,3.1-2.4,5.2-2.4c2.1-0.1,3.8,0.6,5.3,2
					C479-1253.4,480.6-1248.6,479.3-1243z"/>
			</g>
		</g>
	</g>
</pattern>
<title>baybayin-bg-02</title>
<pattern  id="SVGID_1_" xlink:href="#New_Pattern_3" patternTransform="matrix(0.7071 -0.7071 -0.7071 -0.7071 -11141.7285 -23324.998)">
</pattern>
<polygon class="st3" points="3181.8,949.9 920.5,3211.2 -1340.8,949.9 920.5,-1311.5 "/>
</svg>
